#!OML:ASF C:\ViconDB\ViconDB\414\Spring2016\041811\Spring2016.ASF
:FULLY-SPECIFIED
:DEGREES
168
root 10.9049 18.113 -8.6316 -179.812 0.724062 -175.375
lowerback 2.24666 2.52473 4.40483
upperback 2.32916 3.5635 1.854
thorax 1.28195 1.89489 -0.590868
lowerneck -9.12 -4.55394 -11.0755
upperneck 13.9697 -7.6709 15.4913
head 6.76048 -3.43885 6.17902
rclavicle -5.19325e-015 -3.37934e-015
rhumerus -29.4565 -13.0649 -84.9361
rradius 35.8411
rwrist 36.8816
rhand -35.0799 -14.5436
rfingers 7.12502
rthumb -8.22189 -44.3636
lclavicle -5.19325e-015 -3.37934e-015
lhumerus -43.5089 4.80734 86.3451
lradius 22.8877
lwrist -34.682
lhand -25.4324 14.8864
lfingers 7.12502
lthumb 1.094 44.8634
rfemur 144.736 63.4634 -177.574
rtibia 25.7492
rfoot -76.387 -40.9234
rtoes 6.36111e-014
lfemur -31.7228 -9.39965 -7.82828
ltibia 24.0227
lfoot -15.075 8.17841
ltoes 6.36111e-014
169
root 10.8941 18.1012 -8.77749 -179.773 0.832751 -175.371
lowerback 2.19483 2.55121 4.40538
upperback 2.33425 3.59319 1.81368
thorax 1.32021 1.90967 -0.629503
lowerneck -9.13015 -4.57244 -11.0345
upperneck 13.9583 -7.67503 15.3873
head 6.75369 -3.44268 6.1356
rclavicle 5.25288e-014 2.76311e-014
rhumerus -29.3994 -13.3015 -84.8145
rradius 35.7347
rwrist 37.0195
rhand -35.1272 -14.7393
rfingers 7.12502
rthumb -8.2675 -44.5575
lclavicle 5.25288e-014 2.76311e-014
lhumerus -43.6489 4.7906 86.4222
lradius 23.2059
lwrist -34.794
lhand -25.4723 14.7301
lfingers 7.12502
lthumb 1.05538 44.7072
rfemur 145.247 61.5536 -177.037
rtibia 25.398
rfoot -74.0293 -41.0319
rtoes -1.39944e-013
lfemur -31.6732 -9.09561 -8.05417
ltibia 23.9069
lfoot -15.2273 8.47602
ltoes -1.36764e-013
170
root 10.8789 18.0859 -8.91867 -179.679 1.08358 -175.163
lowerback 2.22478 2.63454 4.59147
upperback 2.27201 3.71094 1.83913
thorax 1.25505 1.96909 -0.710446
lowerneck -9.13585 -4.58658 -10.9319
upperneck 14.0161 -7.69949 15.2775
head 6.76805 -3.45558 6.07852
rclavicle -1.82633e-014 -3.61788e-014
rhumerus -29.4162 -13.2156 -84.6992
rradius 35.6438
rwrist 36.6009
rhand -35.1235 -14.5656
rfingers 7.12502
rthumb -8.26393 -44.3839
lclavicle -1.82633e-014 -3.61788e-014
lhumerus -43.8783 4.37496 86.7092
lradius 23.5265
lwrist -34.9071
lhand -25.5622 14.8747
lfingers 7.12502
lthumb 0.968581 44.8523
rfemur 146.107 59.2386 -175.899
rtibia 25.0986
rfoot -71.5788 -41.4936
rtoes -7.95139e-015
lfemur -31.6094 -8.39752 -8.20039
ltibia 23.8652
lfoot -15.1211 8.56237
ltoes -1.62208e-013
171
root 10.8646 18.0671 -9.06662 -179.658 1.25418 -175.158
lowerback 2.27232 2.64808 4.52969
upperback 2.25646 3.72915 1.80957
thorax 1.21125 1.97547 -0.709873
lowerneck -9.04509 -4.53684 -10.9988
upperneck 13.8757 -7.65373 15.491
head 6.71209 -3.43186 6.16669
rclavicle -1.17531e-014 1.39149e-015
rhumerus -29.4977 -14.3147 -84.4245
rradius 35.5513
rwrist 37.8414
rhand -35.0363 -14.34
rfingers 7.12502
rthumb -8.17982 -44.1616
lclavicle -1.17531e-014 1.39149e-015
lhumerus -44.0041 4.0077 87.0751
lradius 23.9272
lwrist -33.9696
lhand -25.5922 14.9815
lfingers 7.12502
lthumb 0.939619 44.9592
rfemur 146.38 57.3483 -175.544
rtibia 24.8239
rfoot -69.3847 -41.6545
rtoes 1.39944e-013
lfemur -31.477 -7.60944 -8.63641
ltibia 23.938
lfoot -14.8907 8.31864
ltoes -1.46306e-013
172
root 10.8494 18.0457 -9.21919 -179.643 1.48539 -175.072
lowerback 2.28505 2.6938 4.5594
upperback 2.25262 3.7911 1.8023
thorax 1.20555 2.00656 -0.73477
lowerneck -9.20368 -4.57025 -11.0215
upperneck 14.0683 -7.69919 15.4281
head 6.80606 -3.44994 6.14536
rclavicle 1.12313e-014 -9.93923e-016
rhumerus -29.5019 -13.7849 -84.4921
rradius 35.4336
rwrist 37.0907
rhand -35.3385 -14.593
rfingers 7.12502
rthumb -8.47147 -44.4031
lclavicle 1.12313e-014 -9.93923e-016
lhumerus -44.1761 4.13111 87.1566
lradius 24.5822
lwrist -33.0489
lhand -25.2211 14.7744
lfingers 7.12502
lthumb 1.29806 44.7502
rfemur 146.536 55.4806 -175.202
rtibia 24.5673
rfoot -67.1724 -41.7702
rtoes 1.28812e-013
lfemur -31.2808 -6.54285 -9.1624
ltibia 24.1058
lfoot -14.372 8.05777
ltoes -3.14875e-013
173
root 10.8331 18.0237 -9.37672 -179.609 1.7316 -174.913
lowerback 2.23104 2.722 4.61477
upperback 2.26488 3.82652 1.81353
thorax 1.25304 2.02631 -0.750374
lowerneck -9.26428 -4.5172 -11.1172
upperneck 14.1094 -7.65614 15.6267
head 6.83515 -3.42208 6.23445
rclavicle -4.7522e-014 -3.99557e-014
rhumerus -29.5513 -14.0608 -84.4403
rradius 35.379
rwrist 37.3435
rhand -35.415 -14.567
rfingers 7.12502
rthumb -8.54533 -44.3741
lclavicle -4.7522e-014 -3.99557e-014
lhumerus -44.2513 3.80068 87.43
lradius 25.0091
lwrist -32.3733
lhand -25.0946 14.8019
lfingers 7.12502
lthumb 1.42023 44.7769
rfemur 146.543 53.8706 -174.956
rtibia 24.3118
rfoot -65.3859 -41.9257
rtoes 1.87653e-013
lfemur -31.0922 -5.60503 -9.4648
ltibia 24.3931
lfoot -13.9783 7.7075
ltoes -2.76708e-013
174
root 10.817 18.0028 -9.53819 -179.584 1.93642 -174.882
lowerback 2.20386 2.74096 4.5827
upperback 2.23474 3.84467 1.73234
thorax 1.2417 2.03221 -0.815297
lowerneck -9.1111 -4.48032 -10.8683
upperneck 13.9465 -7.637 15.6001
head 6.74309 -3.4135 6.18275
rclavicle 1.76546e-014 -1.49089e-014
rhumerus -29.7174 -14.1443 -84.4073
rradius 35.3281
rwrist 37.5232
rhand -35.2234 -14.5162
rfingers 7.12502
rthumb -8.36036 -44.3308
lclavicle 1.76546e-014 -1.49089e-014
lhumerus -44.4613 3.35431 87.6792
lradius 25.417
lwrist -32.0834
lhand -25.2691 14.8525
lfingers 7.12502
lthumb 1.25165 44.8286
rfemur 146.643 52.0901 -174.745
rtibia 23.9968
rfoot -63.2992 -42.1896
rtoes 3.18055e-014
lfemur -30.9424 -4.5536 -10.0101
ltibia 24.8308
lfoot -13.3887 7.15899
ltoes -1.27222e-013
175
root 10.7994 17.9799 -9.70049 -179.51 2.11226 -174.792
lowerback 2.15492 2.78528 4.5314
upperback 2.19695 3.9005 1.77889
thorax 1.2261 2.05788 -0.738162
lowerneck -9.41381 -4.51128 -10.6915
upperneck 14.3607 -7.64663 15.1483
head 6.90459 -3.41592 5.99959
rclavicle -8.1129e-015 -9.44227e-015
rhumerus -29.8931 -14.0071 -84.3224
rradius 35.3217
rwrist 37.166
rhand -35.1493 -14.5636
rfingers 7.12502
rthumb -8.28882 -44.381
lclavicle -8.1129e-015 -9.44227e-015
lhumerus -44.6678 2.92551 88.1407
lradius 25.948
lwrist -31.0946
lhand -25.4087 14.8835
lfingers 7.12502
lthumb 1.11683 44.8603
rfemur 146.708 50.5677 -174.57
rtibia 23.6178
rfoot -61.5623 -42.4028
rtoes 1.55847e-013
lfemur -30.8658 -3.72605 -10.3805
ltibia 25.3921
lfoot -12.6251 6.57226
ltoes -3.97569e-014
176
root 10.7852 17.9611 -9.87329 -179.581 2.22119 -174.814
lowerback 2.13105 2.78049 4.34095
upperback 2.20499 3.88617 1.73872
thorax 1.23693 2.04704 -0.672455
lowerneck -9.51258 -4.48226 -10.2993
upperneck 14.5267 -7.60879 14.757
head 6.93916 -3.39601 5.80331
rclavicle -4.68821e-014 -1.96797e-014
rhumerus -30.1293 -14.1937 -84.2295
rradius 35.2919
rwrist 37.4941
rhand -35.2961 -14.5419
rfingers 7.12502
rthumb -8.4305 -44.3536
lclavicle -4.68821e-014 -1.96797e-014
lhumerus -44.6018 2.78852 88.353
lradius 26.1684
lwrist -30.6119
lhand -25.4172 15.014
lfingers 7.12502
lthumb 1.10866 44.9908
rfemur 146.527 49.0027 -174.691
rtibia 23.1828
rfoot -59.5973 -42.4286
rtoes -7.63333e-014
lfemur -30.5827 -2.9671 -10.8904
ltibia 26.019
lfoot -11.8054 5.859
ltoes 2.13097e-013
177
root 10.7648 17.9419 -10.0499 -179.517 2.50792 -174.671
lowerback 1.95384 2.84424 4.3145
upperback 2.19317 3.95922 1.77026
thorax 1.32316 2.08347 -0.615735
lowerneck -9.71577 -4.45768 -10.0224
upperneck 14.8245 -7.58206 14.4248
head 7.04291 -3.37899 5.64696
rclavicle 8.74031e-015 -8.15017e-015
rhumerus -30.371 -13.8522 -84.1953
rradius 35.293
rwrist 37.3616
rhand -35.2566 -14.8746
rfingers 7.12502
rthumb -8.39243 -44.6879
lclavicle 8.74031e-015 -8.15017e-015
lhumerus -44.68 2.45682 88.7611
lradius 26.4936
lwrist -29.714
lhand -25.5634 15.0078
lfingers 7.12502
lthumb 0.967387 44.9854
rfemur 146.64 47.5207 -174.548
rtibia 22.5682
rfoot -58.356 -42.7432
rtoes 6.83819e-014
lfemur -30.3869 -2.21277 -11.1619
ltibia 26.6874
lfoot -11.1831 5.37323
ltoes 1.59028e-015
178
root 10.7415 17.9274 -10.2289 -179.431 2.77763 -174.679
lowerback 1.75176 2.89093 4.20913
upperback 2.1412 4.0002 1.66212
thorax 1.38523 2.0989 -0.658001
lowerneck -9.69061 -4.38867 -9.45128
upperneck 14.9322 -7.52342 14.0043
head 7.027 -3.35094 5.41362
rclavicle -8.11663e-014 6.83322e-015
rhumerus -30.7332 -13.8897 -84.2639
rradius 35.4267
rwrist 37.1167
rhand -35.192 -14.6473
rfingers 7.12502
rthumb -8.33008 -44.463
lclavicle -8.11663e-014 6.83322e-015
lhumerus -44.7214 2.06964 89.0172
lradius 26.7629
lwrist -28.4436
lhand -25.8078 14.7713
lfingers 7.12502
lthumb 0.731385 44.7498
rfemur 146.811 46.215 -174.64
rtibia 21.786
rfoot -57.1459 -43.0613
rtoes 2.75118e-013
lfemur -30.2634 -2.03122 -11.3684
ltibia 27.3521
lfoot -10.4988 5.33399
ltoes -3.02153e-014
179
root 10.7153 17.9343 -10.4131 -179.361 3.01323 -174.714
lowerback 1.47486 2.93877 4.05019
upperback 2.14234 4.04095 1.61189
thorax 1.5358 2.11668 -0.604723
lowerneck -9.74971 -4.35382 -9.31626
upperneck 15.0475 -7.51191 13.9716
head 7.0665 -3.34014 5.38104
rclavicle -3.87987e-014 5.91384e-015
rhumerus -31.0264 -13.9235 -84.2116
rradius 35.3974
rwrist 37.0985
rhand -35.0427 -14.4879
rfingers 7.12502
rthumb -8.18602 -44.3093
lclavicle -3.87987e-014 5.91384e-015
lhumerus -44.7127 1.96965 89.1255
lradius 26.9041
lwrist -28.8677
lhand -25.5126 15.0321
lfingers 7.12502
lthumb 1.01654 45.0094
rfemur 147.132 44.723 -174.659
rtibia 20.897
rfoot -55.8301 -43.2378
rtoes 4.92986e-014
lfemur -30.1806 -3.03388 -11.1694
ltibia 27.9426
lfoot -10.093 6.39763
ltoes 1.59028e-014
180
root 10.6881 17.939 -10.597 -179.256 3.18665 -174.812
lowerback 1.20353 2.91635 3.65799
upperback 2.13366 3.9901 1.65074
thorax 1.6466 2.08412 -0.333199
lowerneck -9.93246 -4.26732 -9.33017
upperneck 15.2822 -7.41778 13.9863
head 7.16301 -3.28765 5.39947
rclavicle -6.39854e-014 -7.45443e-015
rhumerus -31.3486 -14.334 -83.91
rradius 35.3862
rwrist 37.9762
rhand -35.0868 -14.4771
rfingers 7.12502
rthumb -8.22852 -44.2969
lclavicle -6.39854e-014 -7.45443e-015
lhumerus -44.6017 2.14378 89.3432
lradius 26.7835
lwrist -29.3899
lhand -25.9225 15.3897
lfingers 7.12502
lthumb 0.620641 45.3686
rfemur 147.627 43.1378 -174.598
rtibia 19.916
rfoot -54.1793 -43.5922
rtoes 5.08889e-014
lfemur -30.1288 -3.80235 -11.1651
ltibia 28.4815
lfoot -9.72715 7.15681
ltoes 2.16278e-013
